# xmcd CD database file
#
# Track frame offsets:
#	150
#	20141
#	41957
#	61203
#	79543
#	97009
#	116954
#	138153
#	157741
#	176207
#
# Disc length: 2622 seconds
#
# Revision: 0
# Processed by: cddbd v1.5.2PL0 Copyright (c) Steve Scherf et al.
# Submitted via: CDex 1.70beta2
#
DISCID=850a3c0a
DTITLE=Vindaloo Five - Vindaloo Five
DYEAR=2009
DGENRE=Jazz
TTITLE0=Birk's Works
TTITLE1=You Rascal You
TTITLE2=South Of The Border
TTITLE3=La Rosita
TTITLE4=Someday You'll Be Sorry
TTITLE5=Patricia
TTITLE6=Everyday I Have The Blues
TTITLE7=Indian Love Call
TTITLE8=Lou-Easy-Anna-A
TTITLE9=CC Rider
EXTD=YEAR: 2009
EXTT0=
EXTT1=
EXTT2=
EXTT3=
EXTT4=
EXTT5=
EXTT6=
EXTT7=
EXTT8=
EXTT9=
PLAYORDER=
